Coordinates
version=1
nRows=17
nColumns=40
inDegrees=yes

Units are S.I. units (second, meters, Newtons, ...)
Angles are in degrees.

endheader
time	pelvis_tilt	pelvis_list	pelvis_rotation	pelvis_tx	pelvis_ty	pelvis_tz	hip_flexion_r	hip_adduction_r	hip_rotation_r	knee_angle_r	knee_angle_r_beta	ankle_angle_r	subtalar_angle_r	mtp_angle_r	hip_flexion_l	hip_adduction_l	hip_rotation_l	knee_angle_l	knee_angle_l_beta	ankle_angle_l	subtalar_angle_l	mtp_angle_l	lumbar_extension	lumbar_bending	lumbar_rotation	arm_flex_r	arm_add_r	arm_rot_r	elbow_flex_r	pro_sup_r	wrist_flex_r	wrist_dev_r	arm_flex_l	arm_add_l	arm_rot_l	elbow_flex_l	pro_sup_l	wrist_flex_l	wrist_dev_l
     14.41000000	     -4.33917898	     -5.50180968	     -1.36324087	      0.80742078	      0.93323687	      0.43788501	     30.79990906	     -3.65447791	     -6.13117307	     59.66501700	     59.66501700	      5.97302346	    -12.69613910	      1.55438634	     16.91082007	     -5.67405261	     -5.96938782	     22.36377848	     22.36377848	     13.06771437	     -7.17284339	     -1.19728641	    -10.66230582	      5.78307863	      1.28581514	      2.14793130	    -14.04747317	      3.32038853	     34.89067094	     33.09905967	      0.00000000	      0.00000000	     15.67583988	    -14.23268359	      1.33867046	     36.12807318	     32.97347122	      0.00000000	      0.00000000
     14.42328571	     -4.38674787	     -5.55854787	     -1.74570072	      0.80651228	      0.93385442	      0.43781380	     31.39625681	     -3.36648603	     -5.82451437	     56.80884111	     56.80884111	      6.15771437	    -11.85669877	      1.25080879	     16.15932158	     -5.68936869	     -6.09119454	     21.80151525	     21.80151525	     13.27797903	     -7.38709115	     -1.18230243	    -10.67364313	      5.98233109	      1.38650327	      0.28921127	    -14.33990376	      3.18425840	     33.61541969	     33.30443536	      0.00000000	      0.00000000	     16.64997691	    -14.37736557	      1.02927300	     37.01943360	     33.17253091	      0.00000000	      0.00000000
     14.43657143	     -4.39319215	     -5.40570702	     -2.17086917	      0.80558691	      0.93440138	      0.43766925	     31.67579585	     -3.26159810	     -5.44981831	     53.37158634	     53.37158634	      4.81235128	    -11.69687037	     -3.15411853	     15.30289215	     -5.38700628	     -5.99400417	     21.07627141	     21.07627141	     12.92351401	     -8.42955324	     -1.80697070	    -10.78823722	      5.90024845	      1.28071478	     -0.41422847	    -13.90210867	      0.56440627	     29.36202135	     34.99029027	      0.00000000	      0.00000000	     16.98202590	    -14.63708688	     -0.72352338	     39.39057409	     34.78681668	      0.00000000	      0.00000000
     14.44985714	     -4.48860113	     -5.43672375	     -2.51217418	      0.80459033	      0.93468924	      0.43767577	     31.97444740	     -2.97416469	     -5.29188996	     49.96508417	     49.96508417	      4.89298549	    -10.73419600	     -2.88124534	     14.72067490	     -5.39944221	     -6.18226988	     20.68526074	     20.68526074	     13.16488620	     -8.50055786	     -1.77912553	    -10.75689603	      6.07753099	      1.17056788	     -2.21408010	    -14.21440286	      0.49025631	     28.44959316	     35.11982977	      0.00000000	      0.00000000	     17.80282715	    -15.01523612	     -0.95131945	     40.08662347	     34.91637417	      0.00000000	      0.00000000
     14.46314286	     -4.42147727	     -5.30000340	     -2.92401489	      0.80366099	      0.93505721	      0.43777143	     31.96920815	     -2.86025234	     -5.19031524	     46.35136106	     46.35136106	      4.80292349	     -9.57655091	     -2.85925179	     13.91554930	     -5.20045087	     -6.35692754	     20.21855999	     20.21855999	     13.32577499	     -8.86771474	     -1.67045249	    -10.95106284	      5.95834021	      1.83953625	     -4.09794315	    -14.51031003	      0.11385677	     26.79382165	     35.47529831	      0.00000000	      0.00000000	     18.84592895	    -14.94506254	     -1.42408298	     41.81730540	     35.24498456	      0.00000000	      0.00000000
     14.47642857	     -4.48386306	     -5.32627410	     -3.21223968	      0.80261354	      0.93509235	      0.43785920	     31.89772101	     -2.58668872	     -5.33175986	     42.48437054	     42.48437054	      4.66799220	     -8.37452665	     -2.53329227	     13.39072756	     -5.18291723	     -6.38109061	     19.94735735	     19.94735735	     13.51661146	     -9.11211280	     -1.65588904	    -11.00826027	      6.15829842	      1.79081735	     -5.59612514	    -14.82600171	     -0.19554776	     25.71721691	     35.69023650	      0.00000000	      0.00000000	     19.51765836	    -15.17162724	     -1.78708043	     43.01119673	     35.44221936	      0.00000000	      0.00000000
     14.48971429	     -4.61541550	     -5.20654423	     -3.52726181	      0.80152227	      0.93480149	      0.43814178	     31.80564196	     -2.44268576	     -5.59856404	     38.47445951	     38.47445951	      4.08784747	     -7.12490118	     -3.20595535	     12.94656620	     -5.00862833	     -6.41198558	     19.65298972	     19.65298972	     13.58963418	     -9.57967748	     -1.78334292	    -11.02652455	      6.10813700	      1.26577709	     -6.03638237	    -14.52989014	     -3.45805104	     23.10339067	     37.39605863	      0.00000000	      0.00000000	     18.88852999	    -15.67330564	     -3.73781719	     46.91223622	     37.00917564	      0.00000000	      0.00000000
     14.50300000	     -4.81529210	     -5.16664944	     -3.80820745	      0.80035399	      0.93426247	      0.43861886	     31.69062900	     -2.16255793	     -6.00758538	     34.43615363	     34.43615363	      3.77037972	     -5.68402014	     -2.49682061	     12.70882723	     -4.98409733	     -6.51787799	     19.60149748	     19.60149748	     13.83433974	     -9.76948303	     -1.83109326	    -10.89265146	      6.17034954	      1.28131191	     -7.48481557	    -14.78552709	     -3.62360207	     22.51782736	     37.51880812	      0.00000000	      0.00000000	     19.63351631	    -15.91800039	     -3.95100135	     47.74085971	     37.13221665	      0.00000000	      0.00000000
     14.51628571	     -4.90380461	     -5.09602735	     -4.07669587	      0.79921963	      0.93372415	      0.43920193	     31.36821882	     -1.94266115	     -6.69621240	     30.41162207	     30.41162207	      3.34023092	     -3.78677904	     -1.75393272	     12.38255115	     -4.92974276	     -6.61374222	     19.61615948	     19.61615948	     14.11097285	     -9.98905277	     -1.86446390	    -10.93690782	      6.16989332	      1.55366712	     -9.02353804	    -15.04397337	     -3.91906965	     22.01797396	     37.67657611	      0.00000000	      0.00000000	     20.33027644	    -15.98921423	     -4.28859815	     49.23580897	     37.29517879	      0.00000000	      0.00000000
     14.52957143	     -5.06220991	     -4.86689962	     -4.36975535	      0.79808291	      0.93282541	      0.43991377	     31.16928058	     -1.88386794	     -7.54898653	     26.67168150	     26.67168150	      2.99307668	     -1.32148944	     -0.82800387	     12.16680045	     -4.72320884	     -6.79372199	     19.68089741	     19.68089741	     14.45209264	    -10.18073391	     -1.74674363	    -10.96063889	      5.96279195	      1.54187838	    -10.48595357	    -15.03040621	     -5.43192488	     22.53782456	     38.25992076	      0.00000000	      0.00000000	     20.00752683	    -16.26051333	     -5.37705668	     53.03643956	     37.91064052	      0.00000000	      0.00000000
     14.54285714	     -5.25233243	     -4.78499688	     -4.58914090	      0.79703417	      0.93190175	      0.44084045	     30.83655584	     -1.52969393	     -8.24443492	     22.89747530	     22.89747530	      2.30568047	      0.44253203	      0.22215384	     12.00521582	     -4.69577026	     -6.87960858	     19.79553365	     19.79553365	     14.76723114	    -10.32112233	     -1.86435166	    -10.81282258	      5.94968609	      1.59722931	    -11.68478096	    -15.19550375	     -5.72114820	     22.26224124	     38.39527886	      0.00000000	      0.00000000	     20.50804408	    -16.41698794	     -5.68746144	     54.24562194	     38.05848657	      0.00000000	      0.00000000
     14.55614286	     -5.41960007	     -4.60100349	     -4.82384266	      0.79611191	      0.93088677	      0.44192768	     30.53226118	     -1.28898474	     -9.00772276	     19.55939857	     19.55939857	      1.62546141	      2.45613173	      1.33664632	     11.80542526	     -4.57544969	     -7.05499482	     19.90119479	     19.90119479	     15.09192829	    -10.42385971	     -1.97688001	    -10.66219243	      5.79485898	      1.77566952	    -12.85130027	    -15.20841220	     -6.03667332	     22.20160312	     38.50906701	      0.00000000	      0.00000000	     20.91788359	    -16.47323606	     -6.05268597	     55.88115585	     38.19862879	      0.00000000	      0.00000000
     14.56942857	     -5.51529884	     -4.37864045	     -5.02629023	      0.79532518	      0.92987159	      0.44304379	     30.36386562	     -1.20537784	    -10.03700294	     17.11240129	     17.11240129	      1.78367538	      4.96683744	      4.29508705	     11.52728704	     -4.42186461	     -7.28913986	     20.02568994	     20.02568994	     15.55584552	    -10.30000661	     -1.88479163	    -10.77925196	      5.58949230	      1.39284996	    -14.05988051	    -15.17323189	     -8.05136368	     23.90742175	     39.21845886	      0.00000000	      0.00000000	     19.82486872	    -16.82762631	     -7.58356828	     60.67438017	     39.03418550	      0.00000000	      0.00000000
     14.58271429	     -5.63496817	     -4.16874581	     -5.20791615	      0.79475980	      0.92887321	      0.44432345	     30.18315298	     -1.08639412	    -10.92131653	     15.03605803	     15.03605803	      1.48704314	      6.88587033	      6.08225488	     11.20403857	     -4.28667769	     -7.52455020	     20.03428792	     20.03428792	     15.92895268	    -10.16525991	     -1.98036278	    -10.69175389	      5.40791211	      1.52215742	    -15.05816037	    -15.05119431	     -8.91184877	     24.27581413	     39.69940582	      0.00000000	      0.00000000	     19.82696988	    -16.75296521	     -8.12400257	     62.98390244	     39.58090754	      0.00000000	      0.00000000
     14.59600000	     -5.68651165	     -3.95427132	     -5.33991990	      0.79433391	      0.92799686	      0.44571976	     29.90409627	     -0.94451922	    -11.31851315	     13.37749196	     13.37749196	      0.91139853	      7.86139734	      6.96923423	     10.77521378	     -4.12469718	     -7.67498733	     19.98350025	     19.98350025	     16.24789947	    -10.12482461	     -2.09773083	    -10.63232284	      5.24923757	      1.70528840	    -15.82092424	    -14.93694677	     -9.14652900	     24.34367075	     39.84252549	      0.00000000	      0.00000000	     20.14805349	    -16.70592765	     -8.38385476	     64.40523857	     39.76485500	      0.00000000	      0.00000000
     14.60928571	     -5.72830428	     -3.76192917	     -5.44234768	      0.79421522	      0.92721784	      0.44719078	     29.63975054	     -0.87312310	    -11.75203495	     12.33096054	     12.33096054	      0.48817498	      8.66028192	      7.65371358	     10.23307449	     -3.98714083	     -7.87832117	     19.78476855	     19.78476855	     16.56878572	     -9.92320323	     -2.23345832	    -10.56343293	      5.11632704	      1.87202371	    -16.53107710	    -14.78990642	     -9.43005489	     24.68492694	     39.96841754	      0.00000000	      0.00000000	     20.16913290	    -16.57714538	     -8.69083124	     66.28645655	     39.94570431	      0.00000000	      0.00000000
     14.62257143	     -5.81738761	     -3.51362470	     -5.50880169	      0.79427336	      0.92629171	      0.44876565	     29.54531241	     -0.94269538	    -12.02430112	     12.02371006	     12.02371006	      0.24523316	      9.02224552	      8.07508462	      9.74454398	     -3.81936689	     -8.15506827	     19.59884817	     19.59884817	     16.88719058	     -9.52923174	     -2.49684133	    -10.40388405	      4.87764872	      1.52483774	    -17.00186082	    -14.61064588	    -10.09749534	     25.98765176	     40.26685348	      0.00000000	      0.00000000	     19.30988455	    -16.75647110	     -9.45495892	     69.43345641	     40.38315908	      0.00000000	      0.00000000
